<?xml version="1.0" encoding="UTF-8" standalone="no"?>
<!DOCTYPE svg PUBLIC "-//W3C//DTD SVG 1.1//EN"
 "http://www.w3.org/Graphics/SVG/1.1/DTD/svg11.dtd">
<!-- Generated by graphviz version 14.1.2 (20260124.0452)
 -->
<!-- Title: G Pages: 1 -->
<svg width="607pt" height="657pt"
 viewBox="0.00 0.00 607.00 657.00" xmlns="http://www.w3.org/2000/svg" xmlns:xlink="http://www.w3.org/1999/xlink">
<g id="graph0" class="graph" transform="scale(1 1) rotate(0) translate(4 653)">
<title>G</title><style>.edge>path:hover{stroke-width:8}</style>
<polygon fill="white" stroke="none" points="-4,4 -4,-653 602.99,-653 602.99,4 -4,4"/>
<!-- app_py -->
<g id="node1" class="node">
<title>app_py</title><style>.edge>path:hover{stroke-width:8}</style>
<ellipse fill="#9f5656" stroke="black" cx="291.3" cy="-18" rx="27" ry="18"/>
<text xml:space="preserve" text-anchor="middle" x="291.3" y="-14.12" font-family="Helvetica,sans-Serif" font-size="10.00" fill="#ffffff">app.py</text>
</g>
<!-- dotenv -->
<g id="node2" class="node">
<title>dotenv</title><style>.edge>path:hover{stroke-width:8}</style>
<ellipse fill="#49ac49" stroke="black" cx="120.3" cy="-127" rx="27" ry="18"/>
<text xml:space="preserve" text-anchor="middle" x="120.3" y="-123.12" font-family="Helvetica,sans-Serif" font-size="10.00" fill="#000000">dotenv</text>
</g>
<!-- dotenv&#45;&gt;app_py -->
<g id="edge1" class="edge">
<title>dotenv&#45;&gt;app_py</title><style>.edge>path:hover{stroke-width:8}</style>
<path fill="none" stroke="black" d="M291.3,-72C295.33,-64.65 296.49,-55.82 296.32,-47.5"/>
<polygon fill="#49ac49" stroke="black" points="299.83,-47.44 295.47,-37.78 292.85,-48.05 299.83,-47.44"/>
<path fill="none" stroke="black" d="M146.76,-122.25C191.16,-115.28 277.21,-98.68 291.3,-73"/>
</g>
<!-- dotenv_ipython -->
<g id="node3" class="node">
<title>dotenv_ipython</title><style>.edge>path:hover{stroke-width:8}</style>
<ellipse fill="#4cb34c" stroke="black" cx="46.3" cy="-199" rx="46.3" ry="18"/>
<text xml:space="preserve" text-anchor="middle" x="46.3" y="-195.12" font-family="Helvetica,sans-Serif" font-size="10.00" fill="#000000">dotenv.ipython</text>
</g>
<!-- dotenv_ipython&#45;&gt;dotenv -->
<g id="edge2" class="edge">
<title>dotenv_ipython&#45;&gt;dotenv</title><style>.edge>path:hover{stroke-width:8}</style>
<path fill="none" stroke="black" d="M63.09,-182.12C73.05,-172.69 85.83,-160.61 96.78,-150.25"/>
<polygon fill="#4cb34c" stroke="black" points="99.13,-152.85 103.99,-143.43 94.32,-147.76 99.13,-152.85"/>
</g>
<!-- dotenv_main -->
<g id="node4" class="node">
<title>dotenv_main</title><style>.edge>path:hover{stroke-width:8}</style>
<ellipse fill="#47c247" stroke="black" cx="68.3" cy="-271" rx="40.09" ry="18"/>
<text xml:space="preserve" text-anchor="middle" x="68.3" y="-267.12" font-family="Helvetica,sans-Serif" font-size="10.00" fill="#000000">dotenv.main</text>
</g>
<!-- dotenv_main&#45;&gt;dotenv -->
<g id="edge3" class="edge">
<title>dotenv_main&#45;&gt;dotenv</title><style>.edge>path:hover{stroke-width:8}</style>
<path fill="none" stroke="black" d="M80.58,-253.62C87.6,-243.53 96.03,-230.07 101.3,-217 109.13,-197.6 113.95,-174.45 116.77,-156.63"/>
<polygon fill="#47c247" stroke="black" points="120.23,-157.14 118.2,-146.75 113.3,-156.14 120.23,-157.14"/>
</g>
<!-- dotenv_main&#45;&gt;dotenv_ipython -->
<g id="edge4" class="edge">
<title>dotenv_main&#45;&gt;dotenv_ipython</title><style>.edge>path:hover{stroke-width:8}</style>
<path fill="none" stroke="black" d="M62.86,-252.7C60.52,-245.24 57.72,-236.32 55.09,-227.97"/>
<polygon fill="#47c247" stroke="black" points="58.47,-227.04 52.13,-218.55 51.79,-229.14 58.47,-227.04"/>
</g>
<!-- flask -->
<g id="node5" class="node">
<title>flask</title><style>.edge>path:hover{stroke-width:8}</style>
<polygon fill="blue" stroke="black" points="318.3,-145 264.3,-145 264.3,-109 318.3,-109 318.3,-145"/>
<text xml:space="preserve" text-anchor="middle" x="291.3" y="-123.12" font-family="Helvetica,sans-Serif" font-size="10.00" fill="white">flask</text>
</g>
<!-- flask&#45;&gt;app_py -->
<g id="edge5" class="edge">
<title>flask&#45;&gt;app_py</title><style>.edge>path:hover{stroke-width:8}</style>
<path fill="none" stroke="black" d="M287.26,-108.73C285.65,-97.83 285.37,-83.81 291.3,-73"/>
</g>
<!-- flask_app -->
<g id="node6" class="node">
<title>flask_app</title><style>.edge>path:hover{stroke-width:8}</style>
<polygon fill="blue" stroke="black" points="409.18,-577 353.43,-577 353.43,-541 409.18,-541 409.18,-577"/>
<text xml:space="preserve" text-anchor="middle" x="381.3" y="-555.12" font-family="Helvetica,sans-Serif" font-size="10.00" fill="white">flask.app</text>
</g>
<!-- flask_app&#45;&gt;flask -->
<g id="edge6" class="edge">
<title>flask_app&#45;&gt;flask</title><style>.edge>path:hover{stroke-width:8}</style>
<path fill="none" stroke="black" d="M409.53,-546.87C453.49,-527.45 533.3,-482.99 533.3,-416 533.3,-416 533.3,-416 533.3,-342 533.3,-341.49 571.56,-200.44 571.3,-200"/>
<path fill="none" stroke="black" d="M571.3,-198C544.38,-158.17 400.49,-138.72 330.11,-131.48"/>
<polygon fill="blue" stroke="black" points="330.48,-128 320.18,-130.49 329.78,-134.96 330.48,-128"/>
</g>
<!-- flask_ctx -->
<g id="node9" class="node">
<title>flask_ctx</title><style>.edge>path:hover{stroke-width:8}</style>
<polygon fill="blue" stroke="black" points="315.3,-505 261.3,-505 261.3,-469 315.3,-469 315.3,-505"/>
<text xml:space="preserve" text-anchor="middle" x="288.3" y="-483.12" font-family="Helvetica,sans-Serif" font-size="10.00" fill="white">flask.ctx</text>
</g>
<!-- flask_app&#45;&gt;flask_ctx -->
<g id="edge7" class="edge">
<title>flask_app&#45;&gt;flask_ctx</title><style>.edge>path:hover{stroke-width:8}</style>
<path fill="none" stroke="black" d="M349.16,-533.81C339.83,-526.79 329.64,-519.12 320.32,-512.1"/>
<polygon fill="blue" stroke="black" points="347.01,-536.57 357.1,-539.79 351.22,-530.98 347.01,-536.57"/>
<polygon fill="blue" stroke="black" points="322.65,-509.47 312.56,-506.26 318.44,-515.07 322.65,-509.47"/>
</g>
<!-- flask_globals -->
<g id="node10" class="node">
<title>flask_globals</title><style>.edge>path:hover{stroke-width:8}</style>
<polygon fill="blue" stroke="black" points="353.68,-433 282.93,-433 282.93,-397 353.68,-397 353.68,-433"/>
<text xml:space="preserve" text-anchor="middle" x="318.3" y="-411.12" font-family="Helvetica,sans-Serif" font-size="10.00" fill="white">flask.globals</text>
</g>
<!-- flask_app&#45;&gt;flask_globals -->
<g id="edge8" class="edge">
<title>flask_app&#45;&gt;flask_globals</title><style>.edge>path:hover{stroke-width:8}</style>
<path fill="none" stroke="black" d="M369.04,-530.37C357.9,-505.26 341.55,-468.41 330.44,-443.37"/>
<polygon fill="blue" stroke="black" points="365.71,-531.48 372.96,-539.2 372.11,-528.64 365.71,-531.48"/>
<polygon fill="blue" stroke="black" points="333.76,-442.22 326.51,-434.49 327.36,-445.05 333.76,-442.22"/>
</g>
<!-- flask_templating -->
<g id="node14" class="node">
<title>flask_templating</title><style>.edge>path:hover{stroke-width:8}</style>
<polygon fill="blue" stroke="black" points="476.8,-217 415.8,-217 415.8,-181 476.8,-181 476.8,-217"/>
<text xml:space="preserve" text-anchor="middle" x="446.3" y="-200.75" font-family="Helvetica,sans-Serif" font-size="10.00" fill="white">flask.</text>
<text xml:space="preserve" text-anchor="middle" x="446.3" y="-189.5" font-family="Helvetica,sans-Serif" font-size="10.00" fill="white">templating</text>
</g>
<!-- flask_app&#45;&gt;flask_templating -->
<g id="edge9" class="edge">
<title>flask_app&#45;&gt;flask_templating</title><style>.edge>path:hover{stroke-width:8}</style>
<path fill="none" stroke="black" d="M405.01,-532.36C427.31,-505.48 457.3,-460.97 457.3,-416 457.3,-416 457.3,-416 457.3,-342 457.3,-302.62 453.04,-257.29 449.83,-228.64"/>
<polygon fill="blue" stroke="black" points="402.63,-529.75 398.78,-539.62 407.94,-534.31 402.63,-529.75"/>
<polygon fill="blue" stroke="black" points="453.33,-228.49 448.7,-218.96 446.38,-229.3 453.33,-228.49"/>
</g>
<!-- flask_blueprints -->
<g id="node7" class="node">
<title>flask_blueprints</title><style>.edge>path:hover{stroke-width:8}</style>
<polygon fill="blue" stroke="black" points="263.3,-217 205.3,-217 205.3,-181 263.3,-181 263.3,-217"/>
<text xml:space="preserve" text-anchor="middle" x="234.3" y="-200.75" font-family="Helvetica,sans-Serif" font-size="10.00" fill="white">flask.</text>
<text xml:space="preserve" text-anchor="middle" x="234.3" y="-189.5" font-family="Helvetica,sans-Serif" font-size="10.00" fill="white">blueprints</text>
</g>
<!-- flask_blueprints&#45;&gt;flask -->
<g id="edge10" class="edge">
<title>flask_blueprints&#45;&gt;flask</title><style>.edge>path:hover{stroke-width:8}</style>
<path fill="none" stroke="black" d="M248.39,-180.7C254.95,-172.64 262.89,-162.89 270.14,-153.98"/>
<polygon fill="blue" stroke="black" points="272.82,-156.24 276.42,-146.28 267.39,-151.82 272.82,-156.24"/>
</g>
<!-- flask_config -->
<g id="node8" class="node">
<title>flask_config</title><style>.edge>path:hover{stroke-width:8}</style>
<ellipse fill="#5353b6" stroke="black" cx="358.3" cy="-199" rx="39.2" ry="18"/>
<text xml:space="preserve" text-anchor="middle" x="358.3" y="-195.12" font-family="Helvetica,sans-Serif" font-size="10.00" fill="#ffffff">flask.config</text>
</g>
<!-- flask_config&#45;&gt;flask -->
<g id="edge11" class="edge">
<title>flask_config&#45;&gt;flask</title><style>.edge>path:hover{stroke-width:8}</style>
<path fill="none" stroke="black" d="M343.1,-182.12C334.97,-173.63 324.78,-162.98 315.59,-153.38"/>
<polygon fill="#5353b6" stroke="black" points="318.34,-151.19 308.9,-146.39 313.28,-156.03 318.34,-151.19"/>
</g>
<!-- flask_ctx&#45;&gt;flask -->
<g id="edge12" class="edge">
<title>flask_ctx&#45;&gt;flask</title><style>.edge>path:hover{stroke-width:8}</style>
<path fill="none" stroke="black" d="M139.3,-270C139.3,-237.76 143.65,-228.72 158.3,-200"/>
<path fill="none" stroke="black" d="M158.3,-198C176.49,-162.34 220.64,-144.28 253.11,-135.54"/>
<polygon fill="blue" stroke="black" points="253.71,-138.99 262.57,-133.18 252.02,-132.2 253.71,-138.99"/>
<path fill="none" stroke="black" d="M264.8,-468.83C236.52,-446.94 189.58,-406.43 163.3,-361 142.79,-325.54 139.3,-312.97 139.3,-272"/>
</g>
<!-- flask_ctx&#45;&gt;flask_globals -->
<g id="edge14" class="edge">
<title>flask_ctx&#45;&gt;flask_globals</title><style>.edge>path:hover{stroke-width:8}</style>
<path fill="none" stroke="black" d="M300.14,-458.38C302.25,-453.45 304.45,-448.31 306.56,-443.39"/>
<polygon fill="blue" stroke="black" points="297.03,-456.74 296.31,-467.31 303.47,-459.49 297.03,-456.74"/>
<polygon fill="blue" stroke="black" points="309.65,-445.07 310.37,-434.5 303.22,-442.31 309.65,-445.07"/>
</g>
<!-- flask_globals&#45;&gt;flask -->
<g id="edge15" class="edge">
<title>flask_globals&#45;&gt;flask</title><style>.edge>path:hover{stroke-width:8}</style>
<path fill="none" stroke="black" d="M177.3,-342C161.76,-310.19 139.3,-307.4 139.3,-272"/>
<path fill="none" stroke="black" d="M282.44,-408.57C247.4,-401.03 196.62,-383.53 177.3,-344"/>
</g>
<!-- flask_globals&#45;&gt;flask_blueprints -->
<g id="edge17" class="edge">
<title>flask_globals&#45;&gt;flask_blueprints</title><style>.edge>path:hover{stroke-width:8}</style>
<path fill="none" stroke="black" d="M177.3,-342C163.18,-310.42 220.48,-320.71 234.3,-289 242.56,-270.03 242.18,-246.56 239.94,-228.48"/>
<polygon fill="blue" stroke="black" points="243.42,-228.07 238.45,-218.72 236.5,-229.13 243.42,-228.07"/>
</g>
<!-- flask_helpers -->
<g id="node11" class="node">
<title>flask_helpers</title><style>.edge>path:hover{stroke-width:8}</style>
<polygon fill="blue" stroke="black" points="391.05,-289 319.55,-289 319.55,-253 391.05,-253 391.05,-289"/>
<text xml:space="preserve" text-anchor="middle" x="355.3" y="-267.12" font-family="Helvetica,sans-Serif" font-size="10.00" fill="white">flask.helpers</text>
</g>
<!-- flask_globals&#45;&gt;flask_helpers -->
<g id="edge19" class="edge">
<title>flask_globals&#45;&gt;flask_helpers</title><style>.edge>path:hover{stroke-width:8}</style>
<path fill="none" stroke="black" d="M322.84,-396.59C329.11,-372.5 340.51,-328.75 348,-300.03"/>
<polygon fill="blue" stroke="black" points="351.33,-301.13 350.46,-290.58 344.55,-299.37 351.33,-301.13"/>
</g>
<!-- flask_json -->
<g id="node12" class="node">
<title>flask_json</title><style>.edge>path:hover{stroke-width:8}</style>
<polygon fill="blue" stroke="black" points="225.3,-289 167.3,-289 167.3,-253 225.3,-253 225.3,-289"/>
<text xml:space="preserve" text-anchor="middle" x="196.3" y="-267.12" font-family="Helvetica,sans-Serif" font-size="10.00" fill="white">flask.json</text>
</g>
<!-- flask_globals&#45;&gt;flask_json -->
<g id="edge20" class="edge">
<title>flask_globals&#45;&gt;flask_json</title><style>.edge>path:hover{stroke-width:8}</style>
<path fill="none" stroke="black" d="M177.3,-342C171.32,-328.62 174.71,-312.93 180.18,-299.8"/>
<polygon fill="blue" stroke="black" points="183.3,-301.38 184.45,-290.85 176.98,-298.37 183.3,-301.38"/>
</g>
<!-- flask_globals&#45;&gt;flask_templating -->
<g id="edge21" class="edge">
<title>flask_globals&#45;&gt;flask_templating</title><style>.edge>path:hover{stroke-width:8}</style>
<path fill="none" stroke="black" d="M330.57,-396.56C347.14,-372.73 377.25,-328.44 400.3,-289 412.07,-268.85 424.14,-245.38 432.96,-227.6"/>
<polygon fill="blue" stroke="black" points="436.06,-229.22 437.33,-218.7 429.78,-226.14 436.06,-229.22"/>
</g>
<!-- flask_wrappers -->
<g id="node15" class="node">
<title>flask_wrappers</title><style>.edge>path:hover{stroke-width:8}</style>
<polygon fill="blue" stroke="black" points="315.18,-361 235.43,-361 235.43,-325 315.18,-325 315.18,-361"/>
<text xml:space="preserve" text-anchor="middle" x="275.3" y="-339.12" font-family="Helvetica,sans-Serif" font-size="10.00" fill="white">flask.wrappers</text>
</g>
<!-- flask_globals&#45;&gt;flask_wrappers -->
<g id="edge22" class="edge">
<title>flask_globals&#45;&gt;flask_wrappers</title><style>.edge>path:hover{stroke-width:8}</style>
<path fill="none" stroke="black" d="M301.68,-386.95C298.43,-381.65 295.02,-376.1 291.77,-370.81"/>
<polygon fill="blue" stroke="black" points="298.66,-388.72 306.88,-395.41 304.63,-385.05 298.66,-388.72"/>
<polygon fill="blue" stroke="black" points="294.82,-369.08 286.6,-362.39 288.85,-372.75 294.82,-369.08"/>
</g>
<!-- flask_helpers&#45;&gt;flask -->
<g id="edge23" class="edge">
<title>flask_helpers&#45;&gt;flask</title><style>.edge>path:hover{stroke-width:8}</style>
<path fill="none" stroke="black" d="M329.36,-252.72C313.72,-240.29 295.95,-221.91 291.3,-200"/>
</g>
<!-- flask_helpers&#45;&gt;flask_app -->
<g id="edge24" class="edge">
<title>flask_helpers&#45;&gt;flask_app</title><style>.edge>path:hover{stroke-width:8}</style>
<path fill="none" stroke="black" d="M356.31,-289.2C358.2,-314.26 363.45,-362.32 377.36,-403.23"/>
<polygon fill="blue" stroke="black" points="374.06,-404.39 380.78,-412.58 380.63,-401.98 374.06,-404.39"/>
</g>
<!-- flask_helpers&#45;&gt;flask_blueprints -->
<g id="edge25" class="edge">
<title>flask_helpers&#45;&gt;flask_blueprints</title><style>.edge>path:hover{stroke-width:8}</style>
<path fill="none" stroke="black" d="M325.08,-252.52C309.4,-243.44 290.06,-232.26 273.27,-222.54"/>
<polygon fill="blue" stroke="black" points="275.44,-219.75 265.03,-217.78 271.93,-225.81 275.44,-219.75"/>
</g>
<!-- flask_helpers&#45;&gt;flask_templating -->
<g id="edge26" class="edge">
<title>flask_helpers&#45;&gt;flask_templating</title><style>.edge>path:hover{stroke-width:8}</style>
<path fill="none" stroke="black" d="M377.79,-252.7C388.95,-244.11 402.61,-233.61 414.79,-224.24"/>
<polygon fill="blue" stroke="black" points="416.76,-227.14 422.55,-218.27 412.49,-221.59 416.76,-227.14"/>
</g>
<!-- flask_json&#45;&gt;flask -->
<g id="edge28" class="edge">
<title>flask_json&#45;&gt;flask</title><style>.edge>path:hover{stroke-width:8}</style>
<path fill="none" stroke="black" d="M176.48,-252.58C162.96,-238.5 149.06,-218.11 158.3,-200"/>
</g>
<!-- flask_signals -->
<g id="node13" class="node">
<title>flask_signals</title><style>.edge>path:hover{stroke-width:8}</style>
<ellipse fill="#2222e7" stroke="black" cx="381.3" cy="-631" rx="41.86" ry="18"/>
<text xml:space="preserve" text-anchor="middle" x="381.3" y="-627.12" font-family="Helvetica,sans-Serif" font-size="10.00" fill="#ffffff">flask.signals</text>
</g>
<!-- flask_signals&#45;&gt;flask -->
<g id="edge30" class="edge">
<title>flask_signals&#45;&gt;flask</title><style>.edge>path:hover{stroke-width:8}</style>
<path fill="none" stroke="black" d="M571.3,-270C556.5,-242.63 588.72,-225.78 571.3,-200"/>
</g>
<!-- flask_signals&#45;&gt;flask_app -->
<g id="edge31" class="edge">
<title>flask_signals&#45;&gt;flask_app</title><style>.edge>path:hover{stroke-width:8}</style>
<path fill="none" stroke="black" d="M381.3,-612.7C381.3,-605.41 381.3,-596.73 381.3,-588.54"/>
<polygon fill="#2222e7" stroke="black" points="384.8,-588.62 381.3,-578.62 377.8,-588.62 384.8,-588.62"/>
</g>
<!-- flask_signals&#45;&gt;flask_ctx -->
<g id="edge32" class="edge">
<title>flask_signals&#45;&gt;flask_ctx</title><style>.edge>path:hover{stroke-width:8}</style>
<path fill="none" stroke="black" d="M369.43,-613.43C362.07,-603.05 352.49,-589.35 344.3,-577 330.64,-556.4 315.76,-532.69 304.77,-514.92"/>
<polygon fill="#2222e7" stroke="black" points="307.81,-513.18 299.59,-506.51 301.86,-516.86 307.81,-513.18"/>
</g>
<!-- flask_signals&#45;&gt;flask_helpers -->
<g id="edge33" class="edge">
<title>flask_signals&#45;&gt;flask_helpers</title><style>.edge>path:hover{stroke-width:8}</style>
<path fill="none" stroke="black" d="M420.28,-624.13C456.61,-616.36 508.75,-598.79 533.3,-560"/>
<path fill="none" stroke="black" d="M533.3,-558C594.53,-461.24 457.98,-345.2 390.37,-295.96"/>
<polygon fill="#2222e7" stroke="black" points="392.71,-293.33 382.54,-290.35 388.63,-299.02 392.71,-293.33"/>
</g>
<!-- flask_signals&#45;&gt;flask_templating -->
<g id="edge34" class="edge">
<title>flask_signals&#45;&gt;flask_templating</title><style>.edge>path:hover{stroke-width:8}</style>
<path fill="none" stroke="black" d="M533.3,-558C584.12,-501.57 629.56,-428 571.3,-272"/>
<path fill="none" stroke="black" d="M571.3,-270C554.41,-238.76 517.49,-220.6 488.12,-210.64"/>
<polygon fill="#2222e7" stroke="black" points="489.33,-207.35 478.74,-207.67 487.22,-214.02 489.33,-207.35"/>
</g>
<!-- flask_templating&#45;&gt;flask -->
<g id="edge35" class="edge">
<title>flask_templating&#45;&gt;flask</title><style>.edge>path:hover{stroke-width:8}</style>
<path fill="none" stroke="black" d="M415.31,-184C390.46,-172.78 355.49,-156.99 329.02,-145.03"/>
<polygon fill="blue" stroke="black" points="330.54,-141.88 319.99,-140.96 327.66,-148.26 330.54,-141.88"/>
</g>
<!-- flask_wrappers&#45;&gt;flask -->
<g id="edge37" class="edge">
<title>flask_wrappers&#45;&gt;flask</title><style>.edge>path:hover{stroke-width:8}</style>
<path fill="none" stroke="black" d="M291.3,-198C288.47,-184.67 288.12,-169.58 288.62,-156.84"/>
<polygon fill="blue" stroke="black" points="292.11,-157.17 289.22,-146.98 285.12,-156.75 292.11,-157.17"/>
<path fill="none" stroke="black" d="M291.3,-270C288.84,-238.99 297.76,-230.43 291.3,-200"/>
</g>
<!-- flask_wrappers&#45;&gt;flask_app -->
<g id="edge38" class="edge">
<title>flask_wrappers&#45;&gt;flask_app</title><style>.edge>path:hover{stroke-width:8}</style>
<path fill="none" stroke="black" d="M315.55,-357.09C337.52,-366.47 362.91,-381.48 376.33,-403.92"/>
<polygon fill="blue" stroke="black" points="373.07,-405.22 380.63,-412.64 379.34,-402.13 373.07,-405.22"/>
<path fill="none" stroke="black" d="M381.3,-416C395.45,-459.1 389.26,-513.6 384.66,-540.85"/>
</g>
<!-- flask_wrappers&#45;&gt;flask_blueprints -->
<g id="edge39" class="edge">
<title>flask_wrappers&#45;&gt;flask_blueprints</title><style>.edge>path:hover{stroke-width:8}</style>
<path fill="none" stroke="black" d="M291.3,-270C289.92,-252.61 278.97,-237.11 267.02,-225.14"/>
<polygon fill="blue" stroke="black" points="269.53,-222.69 259.81,-218.47 264.77,-227.83 269.53,-222.69"/>
<path fill="none" stroke="black" d="M282.32,-324.67C287.26,-310.64 292.75,-290.27 291.3,-272"/>
</g>
<!-- flask_wrappers&#45;&gt;flask_ctx -->
<g id="edge40" class="edge">
<title>flask_wrappers&#45;&gt;flask_ctx</title><style>.edge>path:hover{stroke-width:8}</style>
<path fill="none" stroke="black" d="M273.67,-361.48C272.32,-379.49 271.1,-408.33 274.3,-433 275.35,-441.12 277.28,-449.76 279.37,-457.66"/>
<polygon fill="blue" stroke="black" points="275.96,-458.45 282.06,-467.1 282.69,-456.53 275.96,-458.45"/>
</g>
<!-- flask_wrappers&#45;&gt;flask_helpers -->
<g id="edge42" class="edge">
<title>flask_wrappers&#45;&gt;flask_helpers</title><style>.edge>path:hover{stroke-width:8}</style>
<path fill="none" stroke="black" d="M303.58,-317.26C311.15,-310.63 319.35,-303.46 326.93,-296.83"/>
<polygon fill="blue" stroke="black" points="301.44,-314.48 296.21,-323.7 306.05,-319.75 301.44,-314.48"/>
<polygon fill="blue" stroke="black" points="329.12,-299.56 334.34,-290.34 324.51,-294.29 329.12,-299.56"/>
</g>
<!-- flask_wrappers&#45;&gt;flask_json -->
<g id="edge43" class="edge">
<title>flask_wrappers&#45;&gt;flask_json</title><style>.edge>path:hover{stroke-width:8}</style>
<path fill="none" stroke="black" d="M247.38,-317.26C239.89,-310.63 231.8,-303.46 224.32,-296.83"/>
<polygon fill="blue" stroke="black" points="244.83,-319.68 254.64,-323.69 249.48,-314.44 244.83,-319.68"/>
<polygon fill="blue" stroke="black" points="226.82,-294.36 217.01,-290.35 222.17,-299.6 226.82,-294.36"/>
</g>
</g>
</svg>
